<svg width="487" height="25" viewBox="0 0 487 25" fill="none" xmlns="http://www.w3.org/2000/svg">
<path d="M12.7426 3.3844C7.44338 3.3844 3.14258 7.6852 3.14258 12.9844C3.14258 18.2836 7.44338 22.5844 12.7426 22.5844C18.0418 22.5844 22.3426 18.2836 22.3426 12.9844C22.3426 7.6852 18.0418 3.3844 12.7426 3.3844ZM12.7426 21.3844C8.49938 21.3844 4.34258 17.2276 4.34258 12.9844C4.34258 8.7412 8.49938 4.5844 12.7426 4.5844C16.9858 4.5844 21.1426 8.7412 21.1426 12.9844C21.1426 17.2276 16.9858 21.3844 12.7426 21.3844Z" fill="#FB9320"/>
<path d="M19.9426 12.9844C19.9426 16.9609 16.719 20.1844 12.7426 20.1844C8.76613 20.1844 5.54258 16.9609 5.54258 12.9844C5.54258 9.00795 8.76613 5.7844 12.7426 5.7844C16.719 5.7844 19.9426 9.00795 19.9426 12.9844Z" fill="#FB9320"/>
<path d="M106.033 3.3844C100.734 3.3844 96.4331 7.6852 96.4331 12.9844C96.4331 18.2836 100.734 22.5844 106.033 22.5844C111.332 22.5844 115.633 18.2836 115.633 12.9844C115.633 7.6852 111.332 3.3844 106.033 3.3844ZM106.033 21.3844C101.79 21.3844 97.6331 17.2276 97.6331 12.9844C97.6331 8.7412 101.79 4.5844 106.033 4.5844C110.276 4.5844 114.433 8.7412 114.433 12.9844C114.433 17.2276 110.276 21.3844 106.033 21.3844Z" fill="#C1295F"/>
<path d="M113.233 12.9844C113.233 16.9609 110.01 20.1844 106.033 20.1844C102.057 20.1844 98.8331 16.9609 98.8331 12.9844C98.8331 9.00795 102.057 5.7844 106.033 5.7844C110.01 5.7844 113.233 9.00795 113.233 12.9844Z" fill="#C1295F"/>
<path d="M208.823 3.3844C203.524 3.3844 199.223 7.6852 199.223 12.9844C199.223 18.2836 203.524 22.5844 208.823 22.5844C214.122 22.5844 218.423 18.2836 218.423 12.9844C218.423 7.6852 214.122 3.3844 208.823 3.3844ZM208.823 21.3844C204.58 21.3844 200.423 17.2276 200.423 12.9844C200.423 8.7412 204.58 4.5844 208.823 4.5844C213.066 4.5844 217.223 8.7412 217.223 12.9844C217.223 17.2276 213.066 21.3844 208.823 21.3844Z" fill="#647CEC"/>
<path d="M216.023 12.9844C216.023 16.9609 212.8 20.1844 208.823 20.1844C204.847 20.1844 201.623 16.9609 201.623 12.9844C201.623 9.00795 204.847 5.7844 208.823 5.7844C212.8 5.7844 216.023 9.00795 216.023 12.9844Z" fill="#647CEC"/>
<path d="M311.318 3.3844C306.019 3.3844 301.718 7.6852 301.718 12.9844C301.718 18.2836 306.019 22.5844 311.318 22.5844C316.617 22.5844 320.918 18.2836 320.918 12.9844C320.918 7.6852 316.617 3.3844 311.318 3.3844ZM311.318 21.3844C307.075 21.3844 302.918 17.2276 302.918 12.9844C302.918 8.7412 307.075 4.5844 311.318 4.5844C315.561 4.5844 319.718 8.7412 319.718 12.9844C319.718 17.2276 315.561 21.3844 311.318 21.3844Z" fill="#36B335"/>
<path d="M318.518 12.9844C318.518 16.9609 315.294 20.1844 311.318 20.1844C307.341 20.1844 304.118 16.9609 304.118 12.9844C304.118 9.00795 307.341 5.7844 311.318 5.7844C315.294 5.7844 318.518 9.00795 318.518 12.9844Z" fill="#36B335"/>
<path d="M414.027 3.3844C408.728 3.3844 404.427 7.6852 404.427 12.9844C404.427 18.2836 408.728 22.5844 414.027 22.5844C419.326 22.5844 423.627 18.2836 423.627 12.9844C423.627 7.6852 419.326 3.3844 414.027 3.3844ZM414.027 21.3844C409.784 21.3844 405.627 17.2276 405.627 12.9844C405.627 8.7412 409.784 4.5844 414.027 4.5844C418.27 4.5844 422.427 8.7412 422.427 12.9844C422.427 17.2276 418.27 21.3844 414.027 21.3844Z" fill="#1DB3D9"/>
<path d="M421.227 12.9844C421.227 16.9609 418.004 20.1844 414.027 20.1844C410.051 20.1844 406.827 16.9609 406.827 12.9844C406.827 9.00795 410.051 5.7844 414.027 5.7844C418.004 5.7844 421.227 9.00795 421.227 12.9844Z" fill="#1DB3D9"/>
<path d="M41.8286 11.3903V13.1246C41.8286 14.0569 41.7453 14.8434 41.5786 15.484C41.4119 16.1246 41.1724 16.6403 40.8599 17.0309C40.5474 17.4215 40.1698 17.7054 39.7271 17.8824C39.2896 18.0543 38.7948 18.1403 38.2427 18.1403C37.8052 18.1403 37.4015 18.0856 37.0317 17.9762C36.6619 17.8668 36.3286 17.6923 36.0317 17.4528C35.7401 17.208 35.4901 16.8903 35.2817 16.4996C35.0734 16.109 34.9146 15.6351 34.8052 15.0778C34.6958 14.5205 34.6411 13.8694 34.6411 13.1246V11.3903C34.6411 10.458 34.7244 9.67672 34.8911 9.04651C35.063 8.4163 35.3052 7.91109 35.6177 7.53088C35.9302 7.14547 36.3052 6.86943 36.7427 6.70276C37.1854 6.53609 37.6802 6.45276 38.2271 6.45276C38.6698 6.45276 39.076 6.50745 39.4458 6.61682C39.8208 6.72099 40.1541 6.89026 40.4458 7.12463C40.7375 7.3538 40.9849 7.66109 41.188 8.04651C41.3963 8.42672 41.5552 8.89286 41.6646 9.44495C41.7739 9.99703 41.8286 10.6455 41.8286 11.3903ZM40.3755 13.359V11.1481C40.3755 10.6377 40.3442 10.1897 40.2817 9.80432C40.2244 9.4137 40.1385 9.08036 40.0239 8.80432C39.9093 8.52828 39.7635 8.30432 39.5864 8.13245C39.4146 7.96057 39.214 7.83557 38.9849 7.75745C38.7609 7.67411 38.5083 7.63245 38.2271 7.63245C37.8833 7.63245 37.5786 7.69755 37.313 7.82776C37.0474 7.95276 36.8234 8.15328 36.6411 8.42932C36.464 8.70536 36.3286 9.06734 36.2349 9.51526C36.1411 9.96318 36.0942 10.5074 36.0942 11.1481V13.359C36.0942 13.8694 36.1229 14.3199 36.1802 14.7106C36.2427 15.1012 36.3338 15.4397 36.4536 15.7262C36.5734 16.0074 36.7192 16.2392 36.8911 16.4215C37.063 16.6038 37.2609 16.7392 37.4849 16.8278C37.714 16.9111 37.9666 16.9528 38.2427 16.9528C38.5968 16.9528 38.9067 16.8851 39.1724 16.7496C39.438 16.6142 39.6593 16.4033 39.8364 16.1168C40.0187 15.8252 40.1541 15.4528 40.2427 14.9996C40.3312 14.5413 40.3755 13.9944 40.3755 13.359ZM47.1721 12.5543V13.7418H43.3596V12.5543H47.1721ZM53.4999 6.54651V17.984H52.0546V8.3512L49.1405 9.4137V8.10901L53.2733 6.54651H53.4999ZM59.5074 16.7731H59.6558C60.4891 16.7731 61.1662 16.6559 61.687 16.4215C62.2079 16.1871 62.6089 15.872 62.8902 15.4762C63.1714 15.0804 63.3641 14.6351 63.4683 14.1403C63.5725 13.6403 63.6245 13.1272 63.6245 12.6012V10.859C63.6245 10.3434 63.5647 9.88505 63.4449 9.48401C63.3303 9.08297 63.1688 8.74703 62.9605 8.4762C62.7574 8.20536 62.5256 7.99963 62.2652 7.85901C62.0048 7.71838 61.7287 7.64807 61.437 7.64807C61.1037 7.64807 60.8042 7.71578 60.5386 7.8512C60.2782 7.9814 60.0568 8.1663 59.8745 8.40588C59.6975 8.64547 59.562 8.92672 59.4683 9.24963C59.3745 9.57255 59.3277 9.92411 59.3277 10.3043C59.3277 10.6429 59.3693 10.971 59.4527 11.2887C59.536 11.6064 59.6636 11.8929 59.8355 12.1481C60.0074 12.4033 60.2209 12.6064 60.4761 12.7574C60.7365 12.9033 61.0412 12.9762 61.3902 12.9762C61.7131 12.9762 62.0152 12.9137 62.2964 12.7887C62.5829 12.6585 62.8355 12.484 63.0542 12.2653C63.2782 12.0413 63.4553 11.7887 63.5855 11.5074C63.7209 11.2262 63.799 10.9319 63.8199 10.6246H64.5074C64.5074 11.0569 64.4214 11.484 64.2495 11.9059C64.0829 12.3226 63.8485 12.7028 63.5464 13.0465C63.2443 13.3903 62.8902 13.6663 62.4839 13.8746C62.0777 14.0778 61.635 14.1793 61.1558 14.1793C60.5933 14.1793 60.1063 14.0699 59.6949 13.8512C59.2834 13.6324 58.9449 13.3408 58.6792 12.9762C58.4188 12.6116 58.2235 12.2054 58.0933 11.7574C57.9683 11.3043 57.9058 10.846 57.9058 10.3824C57.9058 9.84078 57.9813 9.33297 58.1324 8.85901C58.2834 8.38505 58.5074 7.96838 58.8042 7.60901C59.1011 7.24443 59.4683 6.96057 59.9058 6.75745C60.3485 6.55432 60.8589 6.45276 61.437 6.45276C62.0881 6.45276 62.6428 6.58297 63.1011 6.84338C63.5594 7.1038 63.9318 7.45276 64.2183 7.89026C64.51 8.32776 64.7235 8.81995 64.8589 9.36682C64.9943 9.9137 65.062 10.4762 65.062 11.0543V11.5778C65.062 12.1663 65.023 12.7653 64.9449 13.3746C64.8719 13.9788 64.7287 14.5569 64.5152 15.109C64.3068 15.6611 64.0022 16.1559 63.6011 16.5934C63.2001 17.0257 62.6766 17.3694 62.0308 17.6246C61.3902 17.8746 60.5985 17.9996 59.6558 17.9996H59.5074V16.7731ZM74.2099 17.109L76.5614 9.53088H78.1083L74.7177 19.2887C74.6395 19.497 74.5354 19.721 74.4052 19.9606C74.2802 20.2054 74.1187 20.4371 73.9208 20.6559C73.7229 20.8746 73.4833 21.0517 73.202 21.1871C72.926 21.3278 72.5953 21.3981 72.2099 21.3981C72.0953 21.3981 71.9494 21.3824 71.7724 21.3512C71.5953 21.3199 71.4703 21.2939 71.3974 21.2731L71.3895 20.1012C71.4312 20.1064 71.4963 20.1116 71.5849 20.1168C71.6786 20.1272 71.7437 20.1324 71.7802 20.1324C72.1083 20.1324 72.3869 20.0882 72.6161 19.9996C72.8453 19.9163 73.038 19.7731 73.1942 19.5699C73.3557 19.372 73.4937 19.0986 73.6083 18.7496L74.2099 17.109ZM72.4833 9.53088L74.6786 16.0934L75.0536 17.6168L74.0145 18.1481L70.9052 9.53088H72.4833ZM81.1783 10.859V17.984H79.733V9.53088H81.1392L81.1783 10.859ZM83.8189 9.48401L83.8111 10.8278C83.6913 10.8017 83.5767 10.7861 83.4674 10.7809C83.3632 10.7705 83.2434 10.7653 83.108 10.7653C82.7747 10.7653 82.4804 10.8173 82.2252 10.9215C81.97 11.0257 81.7538 11.1715 81.5767 11.359C81.3997 11.5465 81.259 11.7705 81.1549 12.0309C81.0559 12.2861 80.9908 12.5673 80.9595 12.8746L80.5533 13.109C80.5533 12.5986 80.6028 12.1194 80.7017 11.6715C80.8059 11.2236 80.9648 10.8278 81.1783 10.484C81.3918 10.1351 81.6627 9.86422 81.9908 9.67151C82.3241 9.47359 82.72 9.37463 83.1783 9.37463C83.2825 9.37463 83.4023 9.38765 83.5377 9.4137C83.6731 9.43453 83.7668 9.45797 83.8189 9.48401Z" fill="black"/>
<path d="M135.432 16.7965V17.984H127.986V16.9449L131.713 12.7965C132.171 12.2861 132.525 11.8538 132.775 11.4996C133.031 11.1403 133.208 10.8199 133.307 10.5387C133.411 10.2522 133.463 9.96057 133.463 9.6637C133.463 9.2887 133.385 8.95015 133.229 8.64807C133.077 8.34078 132.854 8.09599 132.557 7.9137C132.26 7.7314 131.9 7.64026 131.479 7.64026C130.973 7.64026 130.551 7.73922 130.213 7.93713C129.88 8.12984 129.63 8.40068 129.463 8.74963C129.296 9.09859 129.213 9.49963 129.213 9.95276H127.768C127.768 9.31213 127.908 8.7262 128.189 8.19495C128.471 7.6637 128.887 7.24182 129.439 6.92932C129.992 6.61161 130.671 6.45276 131.479 6.45276C132.197 6.45276 132.812 6.58036 133.322 6.83557C133.833 7.08557 134.223 7.43974 134.494 7.89807C134.77 8.3512 134.908 8.88245 134.908 9.49182C134.908 9.82515 134.851 10.1637 134.736 10.5074C134.627 10.846 134.473 11.1845 134.275 11.5231C134.083 11.8616 133.856 12.1949 133.596 12.5231C133.34 12.8512 133.067 13.1741 132.775 13.4918L129.729 16.7965H135.432ZM144.439 11.3903V13.1246C144.439 14.0569 144.356 14.8434 144.189 15.484C144.022 16.1246 143.783 16.6403 143.47 17.0309C143.158 17.4215 142.78 17.7054 142.338 17.8824C141.9 18.0543 141.405 18.1403 140.853 18.1403C140.416 18.1403 140.012 18.0856 139.642 17.9762C139.272 17.8668 138.939 17.6923 138.642 17.4528C138.351 17.208 138.101 16.8903 137.892 16.4996C137.684 16.109 137.525 15.6351 137.416 15.0778C137.306 14.5205 137.252 13.8694 137.252 13.1246V11.3903C137.252 10.458 137.335 9.67672 137.502 9.04651C137.674 8.4163 137.916 7.91109 138.228 7.53088C138.541 7.14547 138.916 6.86943 139.353 6.70276C139.796 6.53609 140.291 6.45276 140.838 6.45276C141.28 6.45276 141.687 6.50745 142.056 6.61682C142.431 6.72099 142.765 6.89026 143.056 7.12463C143.348 7.3538 143.595 7.66109 143.799 8.04651C144.007 8.42672 144.166 8.89286 144.275 9.44495C144.384 9.99703 144.439 10.6455 144.439 11.3903ZM142.986 13.359V11.1481C142.986 10.6377 142.955 10.1897 142.892 9.80432C142.835 9.4137 142.749 9.08036 142.634 8.80432C142.52 8.52828 142.374 8.30432 142.197 8.13245C142.025 7.96057 141.825 7.83557 141.595 7.75745C141.371 7.67411 141.119 7.63245 140.838 7.63245C140.494 7.63245 140.189 7.69755 139.924 7.82776C139.658 7.95276 139.434 8.15328 139.252 8.42932C139.075 8.70536 138.939 9.06734 138.845 9.51526C138.752 9.96318 138.705 10.5074 138.705 11.1481V13.359C138.705 13.8694 138.733 14.3199 138.791 14.7106C138.853 15.1012 138.944 15.4397 139.064 15.7262C139.184 16.0074 139.33 16.2392 139.502 16.4215C139.674 16.6038 139.871 16.7392 140.095 16.8278C140.325 16.9111 140.577 16.9528 140.853 16.9528C141.207 16.9528 141.517 16.8851 141.783 16.7496C142.049 16.6142 142.27 16.4033 142.447 16.1168C142.629 15.8252 142.765 15.4528 142.853 14.9996C142.942 14.5413 142.986 13.9944 142.986 13.359ZM149.783 12.5543V13.7418H145.97V12.5543H149.783ZM153.47 11.5856H154.501C155.006 11.5856 155.423 11.5022 155.751 11.3356C156.084 11.1637 156.332 10.9319 156.493 10.6403C156.66 10.3434 156.743 10.0101 156.743 9.64026C156.743 9.20276 156.67 8.83557 156.524 8.5387C156.379 8.24182 156.16 8.01786 155.868 7.86682C155.577 7.71578 155.207 7.64026 154.759 7.64026C154.353 7.64026 153.993 7.72099 153.681 7.88245C153.373 8.0387 153.131 8.26265 152.954 8.55432C152.782 8.84599 152.696 9.18974 152.696 9.58557H151.251C151.251 9.00745 151.397 8.4814 151.689 8.00745C151.98 7.53349 152.389 7.15588 152.915 6.87463C153.446 6.59338 154.061 6.45276 154.759 6.45276C155.446 6.45276 156.048 6.57515 156.564 6.81995C157.079 7.05953 157.48 7.4189 157.767 7.89807C158.053 8.37203 158.196 8.96318 158.196 9.67151C158.196 9.95797 158.129 10.2653 157.993 10.5934C157.863 10.9163 157.657 11.2184 157.376 11.4996C157.1 11.7809 156.741 12.0127 156.298 12.1949C155.855 12.372 155.324 12.4606 154.704 12.4606H153.47V11.5856ZM153.47 12.7731V11.9059H154.704C155.428 11.9059 156.027 11.9918 156.501 12.1637C156.975 12.3356 157.347 12.5647 157.618 12.8512C157.894 13.1377 158.087 13.4528 158.196 13.7965C158.311 14.1351 158.368 14.4736 158.368 14.8121C158.368 15.3434 158.277 15.8147 158.095 16.2262C157.918 16.6377 157.665 16.9866 157.337 17.2731C157.014 17.5595 156.634 17.7757 156.196 17.9215C155.759 18.0673 155.282 18.1403 154.767 18.1403C154.272 18.1403 153.806 18.0699 153.368 17.9293C152.936 17.7887 152.553 17.5856 152.22 17.3199C151.886 17.0491 151.626 16.7184 151.439 16.3278C151.251 15.9319 151.157 15.4814 151.157 14.9762H152.603C152.603 15.372 152.689 15.7184 152.86 16.0153C153.037 16.3121 153.287 16.5439 153.61 16.7106C153.939 16.872 154.324 16.9528 154.767 16.9528C155.209 16.9528 155.59 16.8772 155.907 16.7262C156.23 16.5699 156.478 16.3356 156.649 16.0231C156.827 15.7106 156.915 15.3173 156.915 14.8434C156.915 14.3694 156.816 13.9814 156.618 13.6793C156.42 13.372 156.139 13.1455 155.774 12.9996C155.415 12.8486 154.991 12.7731 154.501 12.7731H153.47ZM162.118 16.7731H162.266C163.1 16.7731 163.777 16.6559 164.298 16.4215C164.818 16.1871 165.219 15.872 165.501 15.4762C165.782 15.0804 165.975 14.6351 166.079 14.1403C166.183 13.6403 166.235 13.1272 166.235 12.6012V10.859C166.235 10.3434 166.175 9.88505 166.055 9.48401C165.941 9.08297 165.779 8.74703 165.571 8.4762C165.368 8.20536 165.136 7.99963 164.876 7.85901C164.615 7.71838 164.339 7.64807 164.048 7.64807C163.714 7.64807 163.415 7.71578 163.149 7.8512C162.889 7.9814 162.667 8.1663 162.485 8.40588C162.308 8.64547 162.173 8.92672 162.079 9.24963C161.985 9.57255 161.938 9.92411 161.938 10.3043C161.938 10.6429 161.98 10.971 162.063 11.2887C162.147 11.6064 162.274 11.8929 162.446 12.1481C162.618 12.4033 162.831 12.6064 163.087 12.7574C163.347 12.9033 163.652 12.9762 164.001 12.9762C164.324 12.9762 164.626 12.9137 164.907 12.7887C165.193 12.6585 165.446 12.484 165.665 12.2653C165.889 12.0413 166.066 11.7887 166.196 11.5074C166.331 11.2262 166.41 10.9319 166.43 10.6246H167.118C167.118 11.0569 167.032 11.484 166.86 11.9059C166.693 12.3226 166.459 12.7028 166.157 13.0465C165.855 13.3903 165.501 13.6663 165.094 13.8746C164.688 14.0778 164.245 14.1793 163.766 14.1793C163.204 14.1793 162.717 14.0699 162.305 13.8512C161.894 13.6324 161.555 13.3408 161.29 12.9762C161.029 12.6116 160.834 12.2054 160.704 11.7574C160.579 11.3043 160.516 10.846 160.516 10.3824C160.516 9.84078 160.592 9.33297 160.743 8.85901C160.894 8.38505 161.118 7.96838 161.415 7.60901C161.712 7.24443 162.079 6.96057 162.516 6.75745C162.959 6.55432 163.469 6.45276 164.048 6.45276C164.699 6.45276 165.253 6.58297 165.712 6.84338C166.17 7.1038 166.542 7.45276 166.829 7.89026C167.12 8.32776 167.334 8.81995 167.469 9.36682C167.605 9.9137 167.673 10.4762 167.673 11.0543V11.5778C167.673 12.1663 167.634 12.7653 167.555 13.3746C167.482 13.9788 167.339 14.5569 167.126 15.109C166.917 15.6611 166.613 16.1559 166.212 16.5934C165.811 17.0257 165.287 17.3694 164.641 17.6246C164.001 17.8746 163.209 17.9996 162.266 17.9996H162.118V16.7731ZM176.82 17.109L179.172 9.53088H180.719L177.328 19.2887C177.25 19.497 177.146 19.721 177.016 19.9606C176.891 20.2054 176.729 20.4371 176.531 20.6559C176.333 20.8746 176.094 21.0517 175.813 21.1871C175.537 21.3278 175.206 21.3981 174.82 21.3981C174.706 21.3981 174.56 21.3824 174.383 21.3512C174.206 21.3199 174.081 21.2939 174.008 21.2731L174 20.1012C174.042 20.1064 174.107 20.1116 174.195 20.1168C174.289 20.1272 174.354 20.1324 174.391 20.1324C174.719 20.1324 174.997 20.0882 175.227 19.9996C175.456 19.9163 175.649 19.7731 175.805 19.5699C175.966 19.372 176.104 19.0986 176.219 18.7496L176.82 17.109ZM175.094 9.53088L177.289 16.0934L177.664 17.6168L176.625 18.1481L173.516 9.53088H175.094ZM183.789 10.859V17.984H182.344V9.53088H183.75L183.789 10.859ZM186.429 9.48401L186.422 10.8278C186.302 10.8017 186.187 10.7861 186.078 10.7809C185.974 10.7705 185.854 10.7653 185.719 10.7653C185.385 10.7653 185.091 10.8173 184.836 10.9215C184.58 11.0257 184.364 11.1715 184.187 11.359C184.01 11.5465 183.87 11.7705 183.765 12.0309C183.666 12.2861 183.601 12.5673 183.57 12.8746L183.164 13.109C183.164 12.5986 183.213 12.1194 183.312 11.6715C183.416 11.2236 183.575 10.8278 183.789 10.484C184.002 10.1351 184.273 9.86422 184.601 9.67151C184.935 9.47359 185.33 9.37463 185.789 9.37463C185.893 9.37463 186.013 9.38765 186.148 9.4137C186.284 9.43453 186.377 9.45797 186.429 9.48401Z" fill="black"/>
<path d="M238.456 14.1559V15.3434H230.237V14.4918L235.331 6.60901H236.511L235.245 8.89026L231.878 14.1559H238.456ZM236.87 6.60901V17.984H235.425V6.60901H236.87ZM247.229 11.3903V13.1246C247.229 14.0569 247.146 14.8434 246.979 15.484C246.813 16.1246 246.573 16.6403 246.26 17.0309C245.948 17.4215 245.57 17.7054 245.128 17.8824C244.69 18.0543 244.195 18.1403 243.643 18.1403C243.206 18.1403 242.802 18.0856 242.432 17.9762C242.063 17.8668 241.729 17.6923 241.432 17.4528C241.141 17.208 240.891 16.8903 240.682 16.4996C240.474 16.109 240.315 15.6351 240.206 15.0778C240.096 14.5205 240.042 13.8694 240.042 13.1246V11.3903C240.042 10.458 240.125 9.67672 240.292 9.04651C240.464 8.4163 240.706 7.91109 241.018 7.53088C241.331 7.14547 241.706 6.86943 242.143 6.70276C242.586 6.53609 243.081 6.45276 243.628 6.45276C244.07 6.45276 244.477 6.50745 244.846 6.61682C245.221 6.72099 245.555 6.89026 245.846 7.12463C246.138 7.3538 246.385 7.66109 246.589 8.04651C246.797 8.42672 246.956 8.89286 247.065 9.44495C247.174 9.99703 247.229 10.6455 247.229 11.3903ZM245.776 13.359V11.1481C245.776 10.6377 245.745 10.1897 245.682 9.80432C245.625 9.4137 245.539 9.08036 245.424 8.80432C245.31 8.52828 245.164 8.30432 244.987 8.13245C244.815 7.96057 244.615 7.83557 244.385 7.75745C244.161 7.67411 243.909 7.63245 243.628 7.63245C243.284 7.63245 242.979 7.69755 242.714 7.82776C242.448 7.95276 242.224 8.15328 242.042 8.42932C241.865 8.70536 241.729 9.06734 241.635 9.51526C241.542 9.96318 241.495 10.5074 241.495 11.1481V13.359C241.495 13.8694 241.523 14.3199 241.581 14.7106C241.643 15.1012 241.734 15.4397 241.854 15.7262C241.974 16.0074 242.12 16.2392 242.292 16.4215C242.464 16.6038 242.661 16.7392 242.885 16.8278C243.115 16.9111 243.367 16.9528 243.643 16.9528C243.997 16.9528 244.307 16.8851 244.573 16.7496C244.839 16.6142 245.06 16.4033 245.237 16.1168C245.419 15.8252 245.555 15.4528 245.643 14.9996C245.732 14.5413 245.776 13.9944 245.776 13.359ZM252.573 12.5543V13.7418H248.76V12.5543H252.573ZM259.697 6.59338H259.822V7.81995H259.697C258.932 7.81995 258.291 7.94495 257.775 8.19495C257.26 8.43974 256.851 8.77047 256.549 9.18713C256.247 9.59859 256.028 10.0621 255.893 10.5778C255.762 11.0934 255.697 11.6168 255.697 12.1481V13.8199C255.697 14.3252 255.757 14.7731 255.877 15.1637C255.997 15.5491 256.161 15.8746 256.369 16.1403C256.578 16.4059 256.812 16.6064 257.072 16.7418C257.338 16.8772 257.614 16.9449 257.9 16.9449C258.234 16.9449 258.531 16.8824 258.791 16.7574C259.051 16.6272 259.27 16.4476 259.447 16.2184C259.63 15.984 259.768 15.708 259.861 15.3903C259.955 15.0726 260.002 14.7236 260.002 14.3434C260.002 14.0048 259.96 13.6793 259.877 13.3668C259.794 13.0491 259.666 12.7679 259.494 12.5231C259.322 12.2731 259.106 12.0778 258.846 11.9371C258.591 11.7913 258.286 11.7184 257.932 11.7184C257.531 11.7184 257.156 11.8173 256.807 12.0153C256.463 12.208 256.179 12.4632 255.955 12.7809C255.736 13.0934 255.611 13.4345 255.58 13.8043L254.814 13.7965C254.887 13.2132 255.023 12.7158 255.221 12.3043C255.424 11.8877 255.674 11.5491 255.971 11.2887C256.273 11.0231 256.609 10.8304 256.979 10.7106C257.354 10.5856 257.749 10.5231 258.166 10.5231C258.734 10.5231 259.223 10.6298 259.635 10.8434C260.046 11.0569 260.385 11.3434 260.65 11.7028C260.916 12.0569 261.111 12.458 261.236 12.9059C261.367 13.3486 261.432 13.8043 261.432 14.2731C261.432 14.8095 261.356 15.3121 261.205 15.7809C261.054 16.2496 260.828 16.6611 260.525 17.0153C260.229 17.3694 259.861 17.6455 259.424 17.8434C258.986 18.0413 258.479 18.1403 257.9 18.1403C257.286 18.1403 256.749 18.0153 256.291 17.7653C255.833 17.5101 255.453 17.1715 255.15 16.7496C254.848 16.3278 254.622 15.859 254.471 15.3434C254.32 14.8278 254.244 14.3043 254.244 13.7731V13.0934C254.244 12.2913 254.325 11.5048 254.486 10.734C254.648 9.96318 254.926 9.26526 255.322 8.64026C255.723 8.01526 256.278 7.51786 256.986 7.14807C257.695 6.77828 258.598 6.59338 259.697 6.59338ZM271.158 14.1559V15.3434H262.939V14.4918L268.033 6.60901H269.213L267.947 8.89026L264.58 14.1559H271.158ZM269.572 6.60901V17.984H268.127V6.60901H269.572ZM279.61 17.109L281.962 9.53088H283.509L280.118 19.2887C280.04 19.497 279.936 19.721 279.806 19.9606C279.681 20.2054 279.519 20.4371 279.321 20.6559C279.123 20.8746 278.884 21.0517 278.603 21.1871C278.327 21.3278 277.996 21.3981 277.61 21.3981C277.496 21.3981 277.35 21.3824 277.173 21.3512C276.996 21.3199 276.871 21.2939 276.798 21.2731L276.79 20.1012C276.832 20.1064 276.897 20.1116 276.985 20.1168C277.079 20.1272 277.144 20.1324 277.181 20.1324C277.509 20.1324 277.788 20.0882 278.017 19.9996C278.246 19.9163 278.439 19.7731 278.595 19.5699C278.756 19.372 278.894 19.0986 279.009 18.7496L279.61 17.109ZM277.884 9.53088L280.079 16.0934L280.454 17.6168L279.415 18.1481L276.306 9.53088H277.884ZM286.579 10.859V17.984H285.134V9.53088H286.54L286.579 10.859ZM289.219 9.48401L289.212 10.8278C289.092 10.8017 288.977 10.7861 288.868 10.7809C288.764 10.7705 288.644 10.7653 288.509 10.7653C288.175 10.7653 287.881 10.8173 287.626 10.9215C287.371 11.0257 287.154 11.1715 286.977 11.359C286.8 11.5465 286.66 11.7705 286.555 12.0309C286.456 12.2861 286.391 12.5673 286.36 12.8746L285.954 13.109C285.954 12.5986 286.003 12.1194 286.102 11.6715C286.206 11.2236 286.365 10.8278 286.579 10.484C286.792 10.1351 287.063 9.86422 287.391 9.67151C287.725 9.47359 288.121 9.37463 288.579 9.37463C288.683 9.37463 288.803 9.38765 288.938 9.4137C289.074 9.43453 289.167 9.45797 289.219 9.48401Z" fill="black"/>
<path d="M338.81 6.59338H338.935V7.81995H338.81C338.044 7.81995 337.404 7.94495 336.888 8.19495C336.373 8.43974 335.964 8.77047 335.662 9.18713C335.36 9.59859 335.141 10.0621 335.005 10.5778C334.875 11.0934 334.81 11.6168 334.81 12.1481V13.8199C334.81 14.3252 334.87 14.7731 334.99 15.1637C335.11 15.5491 335.274 15.8746 335.482 16.1403C335.69 16.4059 335.925 16.6064 336.185 16.7418C336.451 16.8772 336.727 16.9449 337.013 16.9449C337.347 16.9449 337.643 16.8824 337.904 16.7574C338.164 16.6272 338.383 16.4476 338.56 16.2184C338.742 15.984 338.88 15.708 338.974 15.3903C339.068 15.0726 339.115 14.7236 339.115 14.3434C339.115 14.0048 339.073 13.6793 338.99 13.3668C338.906 13.0491 338.779 12.7679 338.607 12.5231C338.435 12.2731 338.219 12.0778 337.958 11.9371C337.703 11.7913 337.399 11.7184 337.044 11.7184C336.643 11.7184 336.268 11.8173 335.919 12.0153C335.576 12.208 335.292 12.4632 335.068 12.7809C334.849 13.0934 334.724 13.4345 334.693 13.8043L333.927 13.7965C334 13.2132 334.136 12.7158 334.333 12.3043C334.537 11.8877 334.787 11.5491 335.083 11.2887C335.386 11.0231 335.722 10.8304 336.091 10.7106C336.466 10.5856 336.862 10.5231 337.279 10.5231C337.847 10.5231 338.336 10.6298 338.748 10.8434C339.159 11.0569 339.498 11.3434 339.763 11.7028C340.029 12.0569 340.224 12.458 340.349 12.9059C340.479 13.3486 340.544 13.8043 340.544 14.2731C340.544 14.8095 340.469 15.3121 340.318 15.7809C340.167 16.2496 339.94 16.6611 339.638 17.0153C339.341 17.3694 338.974 17.6455 338.537 17.8434C338.099 18.0413 337.591 18.1403 337.013 18.1403C336.399 18.1403 335.862 18.0153 335.404 17.7653C334.945 17.5101 334.565 17.1715 334.263 16.7496C333.961 16.3278 333.735 15.859 333.583 15.3434C333.432 14.8278 333.357 14.3043 333.357 13.7731V13.0934C333.357 12.2913 333.438 11.5048 333.599 10.734C333.761 9.96318 334.039 9.26526 334.435 8.64026C334.836 8.01526 335.391 7.51786 336.099 7.14807C336.807 6.77828 337.711 6.59338 338.81 6.59338ZM344.411 12.5699L343.255 12.2731L343.825 6.60901H349.661V7.94495H345.052L344.708 11.0387C344.917 10.9189 345.18 10.8069 345.497 10.7028C345.82 10.5986 346.19 10.5465 346.607 10.5465C347.133 10.5465 347.604 10.6377 348.021 10.8199C348.437 10.997 348.792 11.2522 349.083 11.5856C349.38 11.9189 349.607 12.3199 349.763 12.7887C349.919 13.2574 349.997 13.7809 349.997 14.359C349.997 14.9059 349.922 15.4085 349.771 15.8668C349.625 16.3252 349.403 16.7262 349.107 17.0699C348.81 17.4085 348.435 17.6715 347.982 17.859C347.534 18.0465 347.005 18.1403 346.396 18.1403C345.937 18.1403 345.502 18.0778 345.091 17.9528C344.685 17.8226 344.32 17.6272 343.997 17.3668C343.68 17.1012 343.419 16.7731 343.216 16.3824C343.018 15.9866 342.893 15.5231 342.841 14.9918H344.216C344.278 15.4189 344.403 15.7783 344.591 16.0699C344.778 16.3616 345.023 16.583 345.325 16.734C345.633 16.8798 345.989 16.9528 346.396 16.9528C346.739 16.9528 347.044 16.8929 347.31 16.7731C347.575 16.6533 347.799 16.4814 347.982 16.2574C348.164 16.0335 348.302 15.7627 348.396 15.4449C348.495 15.1272 348.544 14.7705 348.544 14.3746C348.544 14.0153 348.495 13.6819 348.396 13.3746C348.297 13.0673 348.148 12.7991 347.95 12.5699C347.758 12.3408 347.521 12.1637 347.239 12.0387C346.958 11.9085 346.635 11.8434 346.271 11.8434C345.786 11.8434 345.419 11.9085 345.169 12.0387C344.924 12.1689 344.672 12.346 344.411 12.5699ZM355.067 12.5543V13.7418H351.255V12.5543H355.067ZM363.997 6.60901V7.42151L359.286 17.984H357.762L362.465 7.79651H356.309V6.60901H363.997ZM367.403 16.7731H367.551C368.384 16.7731 369.061 16.6559 369.582 16.4215C370.103 16.1871 370.504 15.872 370.785 15.4762C371.067 15.0804 371.259 14.6351 371.363 14.1403C371.468 13.6403 371.52 13.1272 371.52 12.6012V10.859C371.52 10.3434 371.46 9.88505 371.34 9.48401C371.225 9.08297 371.064 8.74703 370.856 8.4762C370.653 8.20536 370.421 7.99963 370.16 7.85901C369.9 7.71838 369.624 7.64807 369.332 7.64807C368.999 7.64807 368.699 7.71578 368.434 7.8512C368.173 7.9814 367.952 8.1663 367.77 8.40588C367.593 8.64547 367.457 8.92672 367.363 9.24963C367.27 9.57255 367.223 9.92411 367.223 10.3043C367.223 10.6429 367.265 10.971 367.348 11.2887C367.431 11.6064 367.559 11.8929 367.731 12.1481C367.903 12.4033 368.116 12.6064 368.371 12.7574C368.632 12.9033 368.936 12.9762 369.285 12.9762C369.608 12.9762 369.91 12.9137 370.192 12.7887C370.478 12.6585 370.731 12.484 370.949 12.2653C371.173 12.0413 371.35 11.7887 371.481 11.5074C371.616 11.2262 371.694 10.9319 371.715 10.6246H372.403C372.403 11.0569 372.317 11.484 372.145 11.9059C371.978 12.3226 371.744 12.7028 371.442 13.0465C371.14 13.3903 370.785 13.6663 370.379 13.8746C369.973 14.0778 369.53 14.1793 369.051 14.1793C368.488 14.1793 368.002 14.0699 367.59 13.8512C367.179 13.6324 366.84 13.3408 366.574 12.9762C366.314 12.6116 366.119 12.2054 365.988 11.7574C365.863 11.3043 365.801 10.846 365.801 10.3824C365.801 9.84078 365.877 9.33297 366.028 8.85901C366.179 8.38505 366.403 7.96838 366.699 7.60901C366.996 7.24443 367.363 6.96057 367.801 6.75745C368.244 6.55432 368.754 6.45276 369.332 6.45276C369.983 6.45276 370.538 6.58297 370.996 6.84338C371.455 7.1038 371.827 7.45276 372.113 7.89026C372.405 8.32776 372.619 8.81995 372.754 9.36682C372.89 9.9137 372.957 10.4762 372.957 11.0543V11.5778C372.957 12.1663 372.918 12.7653 372.84 13.3746C372.767 13.9788 372.624 14.5569 372.41 15.109C372.202 15.6611 371.897 16.1559 371.496 16.5934C371.095 17.0257 370.572 17.3694 369.926 17.6246C369.285 17.8746 368.494 17.9996 367.551 17.9996H367.403V16.7731ZM382.105 17.109L384.457 9.53088H386.003L382.613 19.2887C382.535 19.497 382.431 19.721 382.3 19.9606C382.175 20.2054 382.014 20.4371 381.816 20.6559C381.618 20.8746 381.378 21.0517 381.097 21.1871C380.821 21.3278 380.49 21.3981 380.105 21.3981C379.99 21.3981 379.845 21.3824 379.668 21.3512C379.49 21.3199 379.365 21.2939 379.293 21.2731L379.285 20.1012C379.326 20.1064 379.392 20.1116 379.48 20.1168C379.574 20.1272 379.639 20.1324 379.675 20.1324C380.003 20.1324 380.282 20.0882 380.511 19.9996C380.74 19.9163 380.933 19.7731 381.089 19.5699C381.251 19.372 381.389 19.0986 381.503 18.7496L382.105 17.109ZM380.378 9.53088L382.574 16.0934L382.949 17.6168L381.91 18.1481L378.8 9.53088H380.378ZM389.073 10.859V17.984H387.628V9.53088H389.034L389.073 10.859ZM391.714 9.48401L391.706 10.8278C391.587 10.8017 391.472 10.7861 391.363 10.7809C391.258 10.7705 391.139 10.7653 391.003 10.7653C390.67 10.7653 390.376 10.8173 390.12 10.9215C389.865 11.0257 389.649 11.1715 389.472 11.359C389.295 11.5465 389.154 11.7705 389.05 12.0309C388.951 12.2861 388.886 12.5673 388.855 12.8746L388.448 13.109C388.448 12.5986 388.498 12.1194 388.597 11.6715C388.701 11.2236 388.86 10.8278 389.073 10.484C389.287 10.1351 389.558 9.86422 389.886 9.67151C390.219 9.47359 390.615 9.37463 391.073 9.37463C391.178 9.37463 391.297 9.38765 391.433 9.4137C391.568 9.43453 391.662 9.45797 391.714 9.48401Z" fill="black"/>
<path d="M443.434 11.8824V13.2418H435.637V11.8824H443.434ZM440.262 8.56213V16.8434H438.816V8.56213H440.262ZM452.543 14.9059C452.543 15.5986 452.381 16.1871 452.058 16.6715C451.741 17.1507 451.308 17.5153 450.761 17.7653C450.22 18.0153 449.608 18.1403 448.925 18.1403C448.243 18.1403 447.629 18.0153 447.082 17.7653C446.535 17.5153 446.103 17.1507 445.785 16.6715C445.467 16.1871 445.308 15.5986 445.308 14.9059C445.308 14.4528 445.394 14.0387 445.566 13.6637C445.743 13.2835 445.991 12.9528 446.308 12.6715C446.631 12.3903 447.011 12.1741 447.449 12.0231C447.892 11.8668 448.379 11.7887 448.91 11.7887C449.608 11.7887 450.23 11.9241 450.777 12.1949C451.324 12.4606 451.754 12.8278 452.066 13.2965C452.384 13.7653 452.543 14.3017 452.543 14.9059ZM451.09 14.8746C451.09 14.4528 450.998 14.0804 450.816 13.7574C450.634 13.4293 450.379 13.1741 450.05 12.9918C449.722 12.8095 449.342 12.7184 448.91 12.7184C448.467 12.7184 448.084 12.8095 447.761 12.9918C447.444 13.1741 447.196 13.4293 447.019 13.7574C446.842 14.0804 446.754 14.4528 446.754 14.8746C446.754 15.3121 446.84 15.6871 447.011 15.9996C447.188 16.3069 447.438 16.5439 447.761 16.7106C448.09 16.872 448.478 16.9528 448.925 16.9528C449.373 16.9528 449.759 16.872 450.082 16.7106C450.405 16.5439 450.652 16.3069 450.824 15.9996C451.001 15.6871 451.09 15.3121 451.09 14.8746ZM452.277 9.56995C452.277 10.122 452.131 10.6194 451.84 11.0621C451.548 11.5048 451.149 11.8538 450.644 12.109C450.139 12.3642 449.566 12.4918 448.925 12.4918C448.274 12.4918 447.694 12.3642 447.183 12.109C446.678 11.8538 446.282 11.5048 445.996 11.0621C445.709 10.6194 445.566 10.122 445.566 9.56995C445.566 8.90849 445.709 8.34599 445.996 7.88245C446.287 7.4189 446.686 7.06474 447.191 6.81995C447.696 6.57515 448.272 6.45276 448.918 6.45276C449.569 6.45276 450.147 6.57515 450.652 6.81995C451.157 7.06474 451.553 7.4189 451.84 7.88245C452.131 8.34599 452.277 8.90849 452.277 9.56995ZM450.832 9.59338C450.832 9.21318 450.751 8.87724 450.59 8.58557C450.428 8.2939 450.204 8.06474 449.918 7.89807C449.631 7.7262 449.298 7.64026 448.918 7.64026C448.537 7.64026 448.204 7.72099 447.918 7.88245C447.636 8.0387 447.415 8.26265 447.254 8.55432C447.097 8.84599 447.019 9.19234 447.019 9.59338C447.019 9.98401 447.097 10.3252 447.254 10.6168C447.415 10.9085 447.639 11.1351 447.925 11.2965C448.212 11.458 448.545 11.5387 448.925 11.5387C449.306 11.5387 449.636 11.458 449.918 11.2965C450.204 11.1351 450.428 10.9085 450.59 10.6168C450.751 10.3252 450.832 9.98401 450.832 9.59338ZM461.831 11.3903V13.1246C461.831 14.0569 461.748 14.8434 461.581 15.484C461.415 16.1246 461.175 16.6403 460.863 17.0309C460.55 17.4215 460.173 17.7054 459.73 17.8824C459.292 18.0543 458.798 18.1403 458.245 18.1403C457.808 18.1403 457.404 18.0856 457.035 17.9762C456.665 17.8668 456.331 17.6923 456.035 17.4528C455.743 17.208 455.493 16.8903 455.285 16.4996C455.076 16.109 454.917 15.6351 454.808 15.0778C454.699 14.5205 454.644 13.8694 454.644 13.1246V11.3903C454.644 10.458 454.727 9.67672 454.894 9.04651C455.066 8.4163 455.308 7.91109 455.62 7.53088C455.933 7.14547 456.308 6.86943 456.745 6.70276C457.188 6.53609 457.683 6.45276 458.23 6.45276C458.673 6.45276 459.079 6.50745 459.449 6.61682C459.824 6.72099 460.157 6.89026 460.449 7.12463C460.74 7.3538 460.988 7.66109 461.191 8.04651C461.399 8.42672 461.558 8.89286 461.667 9.44495C461.777 9.99703 461.831 10.6455 461.831 11.3903ZM460.378 13.359V11.1481C460.378 10.6377 460.347 10.1897 460.285 9.80432C460.227 9.4137 460.141 9.08036 460.027 8.80432C459.912 8.52828 459.766 8.30432 459.589 8.13245C459.417 7.96057 459.217 7.83557 458.988 7.75745C458.764 7.67411 458.511 7.63245 458.23 7.63245C457.886 7.63245 457.581 7.69755 457.316 7.82776C457.05 7.95276 456.826 8.15328 456.644 8.42932C456.467 8.70536 456.331 9.06734 456.238 9.51526C456.144 9.96318 456.097 10.5074 456.097 11.1481V13.359C456.097 13.8694 456.126 14.3199 456.183 14.7106C456.245 15.1012 456.337 15.4397 456.456 15.7262C456.576 16.0074 456.722 16.2392 456.894 16.4215C457.066 16.6038 457.264 16.7392 457.488 16.8278C457.717 16.9111 457.969 16.9528 458.245 16.9528C458.6 16.9528 458.91 16.8851 459.175 16.7496C459.441 16.6142 459.662 16.4033 459.839 16.1168C460.022 15.8252 460.157 15.4528 460.245 14.9996C460.334 14.5413 460.378 13.9944 460.378 13.359ZM470.831 17.109L473.182 9.53088H474.729L471.339 19.2887C471.26 19.497 471.156 19.721 471.026 19.9606C470.901 20.2054 470.74 20.4371 470.542 20.6559C470.344 20.8746 470.104 21.0517 469.823 21.1871C469.547 21.3278 469.216 21.3981 468.831 21.3981C468.716 21.3981 468.57 21.3824 468.393 21.3512C468.216 21.3199 468.091 21.2939 468.018 21.2731L468.01 20.1012C468.052 20.1064 468.117 20.1116 468.206 20.1168C468.3 20.1272 468.365 20.1324 468.401 20.1324C468.729 20.1324 469.008 20.0882 469.237 19.9996C469.466 19.9163 469.659 19.7731 469.815 19.5699C469.977 19.372 470.115 19.0986 470.229 18.7496L470.831 17.109ZM469.104 9.53088L471.3 16.0934L471.675 17.6168L470.635 18.1481L467.526 9.53088H469.104ZM477.799 10.859V17.984H476.354V9.53088H477.76L477.799 10.859ZM480.44 9.48401L480.432 10.8278C480.312 10.8017 480.198 10.7861 480.088 10.7809C479.984 10.7705 479.864 10.7653 479.729 10.7653C479.396 10.7653 479.101 10.8173 478.846 10.9215C478.591 11.0257 478.375 11.1715 478.198 11.359C478.021 11.5465 477.88 11.7705 477.776 12.0309C477.677 12.2861 477.612 12.5673 477.58 12.8746L477.174 13.109C477.174 12.5986 477.224 12.1194 477.323 11.6715C477.427 11.2236 477.586 10.8278 477.799 10.484C478.013 10.1351 478.284 9.86422 478.612 9.67151C478.945 9.47359 479.341 9.37463 479.799 9.37463C479.903 9.37463 480.023 9.38765 480.159 9.4137C480.294 9.43453 480.388 9.45797 480.44 9.48401Z" fill="black"/>
</svg>
